<?xml version="1.0" encoding="UTF-8"?>
<svg xmlns:xodm="http://www.corel.com/coreldraw/odm/2003" xmlns="http://www.w3.org/2000/svg" xmlns:xlink="http://www.w3.org/1999/xlink" version="1.1" id="Layer_1" x="0px" y="0px" viewBox="0 0 1950 2500" xml:space="preserve">
<g id="Layer_x0020_1">
	<g>
		<path id="Fill-19" fill-rule="evenodd" clip-rule="evenodd" fill="#6747ED" d="M831.9,1395.3c-304.1,0-554.6-250.4-554.6-554.5    s250.4-554.5,554.6-554.5c304.1,0,554.5,250.4,554.5,554.5C1395.4,1144.9,1144.9,1395.3,831.9,1395.3L831.9,1395.3L831.9,1395.3z     M831.9,0c465.1,0,831.8,375.7,831.8,831.9c0,456.1-375.7,831.8-831.8,831.8C366.8,1663.7,0,1288,0,831.9C0,375.7,375.7,0,831.9,0    z M1627.9,1708.4c53.7,53.7,53.7,143.1,0,196.8l-554.5,554.6c-53.7,53.7-143.1,53.7-196.8,0c-53.7-53.7-53.7-143.1,0-196.8    l554.6-554.5C1484.8,1654.7,1574.3,1654.7,1627.9,1708.4L1627.9,1708.4z M1950,143.1c0,80.5-62.6,143.1-143.1,143.1    c-80.5,0-143.1-62.6-143.1-143.1S1726.3,0,1806.9,0C1887.4,0,1950,62.6,1950,143.1z"></path>
	</g>
</g>
</svg>
